<svg width="1345" height="884" viewBox="0 0 1345 884" fill="none" xmlns="http://www.w3.org/2000/svg">
<path d="M672.304 -281L722.402 83.28L929.583 -236.66L814.973 116.502L1147.69 -110.39L885.823 177.888L1293.43 78.5869L924.167 258.093L1344.61 301.5L924.167 344.907L1293.43 524.413L885.823 425.112L1147.69 713.39L814.973 486.498L929.583 839.66L722.402 519.72L672.304 884L622.205 519.72L415.024 839.66L529.635 486.498L196.913 713.39L458.785 425.112L51.1761 524.413L420.441 344.907L0 301.5L420.441 258.093L51.1761 78.5869L458.785 177.888L196.913 -110.39L529.635 116.502L415.024 -236.66L622.205 83.28L672.304 -281Z" fill="#AA3FFF"/>
<path fill-rule="evenodd" clip-rule="evenodd" d="M1146.45 187.443H199.214C199.014 210.189 177.671 228.575 151.371 228.575C151.248 228.575 151.124 228.574 151 228.574V375.107C151.124 375.106 151.248 375.106 151.371 375.106C177.795 375.106 199.215 393.665 199.215 416.559C199.215 416.666 199.215 416.773 199.214 416.88H1146.45C1146.45 416.773 1146.44 416.666 1146.44 416.559C1146.44 393.772 1167.66 375.28 1193.92 375.107V228.574C1167.79 228.402 1146.64 210.082 1146.45 187.443Z" fill="black"/>
<path fill-rule="evenodd" clip-rule="evenodd" d="M1129.05 204.796H215.499C215.306 224.209 194.722 239.901 169.358 239.901C169.238 239.901 169.119 239.901 169 239.9V364.964C169.119 364.964 169.239 364.963 169.358 364.963C194.842 364.963 215.5 380.803 215.5 400.343C215.5 400.434 215.5 400.526 215.499 400.617H1129.05C1129.05 400.526 1129.05 400.434 1129.05 400.343C1129.05 380.895 1149.51 365.112 1174.83 364.964V239.9C1149.63 239.753 1129.24 224.118 1129.05 204.796Z" fill="#FFF500"/>
</svg>
