<svg width="461" height="327" viewBox="0 0 461 327" fill="none" xmlns="http://www.w3.org/2000/svg">
<path fill-rule="evenodd" clip-rule="evenodd" d="M220.569 222.557C239.169 240.557 262.269 249.557 289.869 249.557C333.069 249.557 363.969 236.657 382.569 210.857C401.169 184.457 413.769 156.857 420.369 128.057C424.451 111.048 428.24 91.7392 431.736 70.1317C450.183 96.6034 461 128.788 461 163.5C461 253.799 387.799 327 297.5 327C207.201 327 134 253.799 134 163.5C134 73.2014 207.201 0 297.5 0C338.975 0 376.844 15.4432 405.669 40.8931C399.916 85.2873 393.116 119.442 385.269 143.357C378.069 165.557 368.169 184.157 355.569 199.157C342.969 213.557 323.469 220.757 297.069 220.757C289.869 220.757 283.869 219.257 279.069 216.257C274.869 212.657 272.769 207.857 272.769 201.857C272.769 192.257 278.469 183.257 289.869 174.857C300.669 167.657 309.069 159.857 315.069 151.457C321.669 143.057 324.969 131.957 324.969 118.157C324.969 104.357 320.169 92.3568 310.569 82.1568C301.569 71.3568 288.669 65.9568 271.869 65.9568C250.269 65.9568 231.669 73.4568 216.069 88.4568C201.069 103.457 193.569 123.557 193.569 148.757C193.569 179.957 202.569 204.557 220.569 222.557Z" fill="#AA3FFF"/>
<path d="M89 164C89 168.418 92.5817 172 97 172C101.418 172 105 168.418 105 164C105 159.582 101.418 156 97 156C92.5817 156 89 159.582 89 164ZM-1.31134e-07 165.5L97 165.5L97 162.5L1.31134e-07 162.5L-1.31134e-07 165.5Z" fill="#AA3FFF"/>
</svg>
