<svg width="461" height="327" viewBox="0 0 461 327" fill="none" xmlns="http://www.w3.org/2000/svg">
<path fill-rule="evenodd" clip-rule="evenodd" d="M267.581 170.029H195.581V202.029H456.426C439.096 273.721 374.516 326.973 297.499 326.973C207.201 326.973 134 253.772 134 163.474C134 74.1502 205.629 1.55668 294.581 0V143.029C294.581 161.029 285.581 170.029 267.581 170.029ZM386.581 26.3511V143.029C386.581 161.029 395.581 170.029 413.581 170.029H460.869C460.955 167.854 460.998 165.669 460.998 163.474C460.998 106.035 431.379 55.5138 386.581 26.3511Z" fill="#AA3FFF"/>
<path d="M89 163C89 167.418 92.5817 171 97 171C101.418 171 105 167.418 105 163C105 158.582 101.418 155 97 155C92.5817 155 89 158.582 89 163ZM-1.31134e-07 164.5L97 164.5L97 161.5L1.31134e-07 161.5L-1.31134e-07 164.5Z" fill="#AA3FFF"/>
</svg>
