<svg width="1533" height="2084" viewBox="0 0 1533 2084" fill="none" xmlns="http://www.w3.org/2000/svg">
<mask id="mask0_671_871" style="mask-type:alpha" maskUnits="userSpaceOnUse" x="0" y="0" width="1533" height="2084">
<rect width="1533" height="2084" fill="black"/>
</mask>
<g mask="url(#mask0_671_871)">
<path d="M930.592 186.639L1969.07 486.889L2305.57 950.889L792.574 861.639L930.592 186.639Z" fill="#FF5CB4"/>
<path d="M526.575 855.639C465.775 830.039 476.575 817.639 504.575 799.139L828.575 673.639L904.575 473.639L1670.57 903.639L996.141 1257.64H904.575L794.575 931.639C739.908 926.305 587.375 881.239 526.575 855.639Z" fill="#FF0000"/>
<path d="M1599.64 869.639C1599.64 998.584 1494.89 1103.14 1365.64 1103.14C1236.39 1103.14 1131.64 998.584 1131.64 869.639C1131.64 740.693 1236.39 636.139 1365.64 636.139C1494.89 636.139 1599.64 740.693 1599.64 869.639Z" stroke="white" stroke-width="13"/>
<path d="M784.999 987.958C741.799 951.158 802.999 972.625 838.999 987.958L890.999 998.958V1025.96C887.666 1058.62 877.799 1117.96 864.999 1093.96C848.999 1063.96 838.999 1091.96 804.999 1093.96C777.799 1095.56 782.307 1034.64 813.641 1016.64C812.832 1016.39 812.301 1016.26 811.968 1016.19C811.107 1016.03 811.566 1016.31 811.968 1016.19C813.079 1015.87 813.757 1012.46 784.999 987.958Z" fill="#FF0000"/>
<path d="M941.594 285.205C934.218 339.66 920.031 382.692 909.907 381.321C899.782 379.95 897.553 334.693 904.929 280.238C912.305 225.783 926.492 182.75 936.617 184.122C946.742 185.493 948.97 230.749 941.594 285.205Z" fill="#FFF500"/>
<ellipse cx="842.641" cy="953.639" rx="12.5" ry="14" fill="black"/>
<path d="M1125.14 679.639C1125.14 679.639 1060.45 629.639 980.641 629.639C900.835 629.639 836.141 679.639 836.141 679.639C836.141 679.639 900.835 729.639 980.641 729.639C1060.45 729.639 1125.14 679.639 1125.14 679.639Z" fill="black"/>
<ellipse cx="980.141" cy="672.139" rx="42" ry="42.5" fill="#AA3FFF"/>
</g>
</svg>
