<svg width="1345" height="884" viewBox="0 0 1345 884" fill="none" xmlns="http://www.w3.org/2000/svg">
<path d="M672.304 -281L722.402 83.28L929.583 -236.66L814.973 116.502L1147.69 -110.39L885.823 177.888L1293.43 78.5869L924.167 258.093L1344.61 301.5L924.167 344.907L1293.43 524.413L885.823 425.112L1147.69 713.39L814.973 486.498L929.583 839.66L722.402 519.72L672.304 884L622.205 519.72L415.024 839.66L529.635 486.498L196.913 713.39L458.785 425.112L51.1761 524.413L420.441 344.907L0 301.5L420.441 258.093L51.1761 78.5869L458.785 177.888L196.913 -110.39L529.635 116.502L415.024 -236.66L622.205 83.28L672.304 -281Z" fill="#AA3FFF"/>
<path fill-rule="evenodd" clip-rule="evenodd" d="M1146.45 187.443H199.214C199.014 210.189 177.671 228.575 151.371 228.575C151.248 228.575 151.124 228.574 151 228.574V375.107C151.124 375.106 151.248 375.106 151.371 375.106C177.795 375.106 199.215 393.665 199.215 416.559C199.215 416.666 199.215 416.773 199.214 416.88H1146.45C1146.45 416.773 1146.44 416.666 1146.44 416.559C1146.44 393.772 1167.66 375.28 1193.92 375.107V228.574C1167.79 228.402 1146.64 210.082 1146.45 187.443Z" fill="black"/>
<path fill-rule="evenodd" clip-rule="evenodd" d="M1129.05 204.796H215.499C215.306 224.209 194.722 239.901 169.358 239.901C169.238 239.901 169.119 239.901 169 239.9V364.964C169.119 364.964 169.239 364.963 169.358 364.963C194.842 364.963 215.5 380.803 215.5 400.343C215.5 400.434 215.5 400.526 215.499 400.617H1129.05C1129.05 400.526 1129.05 400.434 1129.05 400.343C1129.05 380.895 1149.51 365.112 1174.83 364.964V239.9C1149.63 239.753 1129.24 224.118 1129.05 204.796Z" fill="#FFF500"/>
<path d="M230.56 338.471C225.184 338.471 220.384 336.775 216.16 333.383C211.936 329.991 208.64 325.543 206.272 320.039C203.904 314.471 202.72 308.647 202.72 302.567C202.72 296.487 203.904 290.695 206.272 285.191C208.64 279.623 211.936 275.143 216.16 271.751C220.384 268.359 225.184 266.663 230.56 266.663C235.936 266.663 240.736 268.359 244.96 271.751C249.184 275.143 252.48 279.623 254.848 285.191C257.216 290.695 258.4 296.487 258.4 302.567C258.4 308.647 257.216 314.471 254.848 320.039C252.48 325.543 249.184 329.991 244.96 333.383C240.736 336.775 235.936 338.471 230.56 338.471ZM230.56 335.399C236.832 335.399 241.344 332.551 244.096 326.855C246.848 321.095 248.224 312.999 248.224 302.567C248.224 292.071 246.848 283.975 244.096 278.279C241.344 272.583 236.832 269.735 230.56 269.735C224.288 269.735 219.776 272.583 217.024 278.279C214.272 283.975 212.896 292.071 212.896 302.567C212.896 312.999 214.272 321.095 217.024 326.855C219.776 332.551 224.288 335.399 230.56 335.399ZM269.171 333.671H276.083C277.811 333.671 278.675 332.807 278.675 331.079V274.055C278.675 273.159 278.451 272.519 278.003 272.135C277.619 271.687 276.979 271.463 276.083 271.463H269.171V268.391H298.547V271.463H290.099C289.203 271.463 288.531 271.687 288.083 272.135C287.699 272.519 287.507 273.159 287.507 274.055V331.079C287.507 332.807 288.371 333.671 290.099 333.671H299.795C303.187 333.671 306.227 332.903 308.915 331.367C311.603 329.831 313.619 327.591 314.963 324.647C315.987 322.471 316.819 320.167 317.459 317.735C318.163 315.239 318.675 313.127 318.995 311.399C319.315 309.671 319.507 308.583 319.571 308.135H321.971L321.107 336.743H269.171V333.671ZM333.483 333.671H340.395C342.123 333.671 342.987 332.807 342.987 331.079V274.055C342.987 273.159 342.763 272.519 342.315 272.135C341.931 271.687 341.291 271.463 340.395 271.463H333.483V268.391H368.619C373.931 268.391 378.795 269.831 383.211 272.711C387.627 275.527 391.115 279.495 393.675 284.615C396.299 289.671 397.611 295.463 397.611 301.991C397.611 308.519 396.299 314.439 393.675 319.751C391.115 325.063 387.595 329.223 383.115 332.231C378.699 335.239 373.867 336.743 368.619 336.743H333.483V333.671ZM368.235 333.671C372.715 333.671 376.395 332.167 379.275 329.159C382.155 326.087 384.235 322.183 385.515 317.447C386.795 312.647 387.435 307.495 387.435 301.991C387.435 293.415 385.867 286.183 382.731 280.295C379.659 274.407 374.827 271.463 368.235 271.463H354.411C353.515 271.463 352.843 271.687 352.395 272.135C352.011 272.519 351.819 273.159 351.819 274.055V331.079C351.819 332.807 352.683 333.671 354.411 333.671H368.235ZM463.04 338.471C460.352 338.471 457.696 337.895 455.072 336.743C452.512 335.527 450.272 334.215 448.352 332.807C445.664 330.759 444.064 329.735 443.552 329.735C442.272 329.735 441.44 331.111 441.056 333.863L440.672 337.703H438.464L437.792 307.367H440.096C440.48 312.103 441.792 316.647 444.032 320.999C446.336 325.287 449.184 328.775 452.576 331.463C455.968 334.087 459.456 335.399 463.04 335.399C468.288 335.399 472.096 334.119 474.464 331.559C476.896 328.999 478.112 325.927 478.112 322.343C478.112 319.207 477.184 316.743 475.328 314.951C473.536 313.159 470.88 311.559 467.36 310.151L452.768 304.295C447.712 302.247 443.968 299.623 441.536 296.423C439.168 293.159 437.984 289.255 437.984 284.711C437.984 278.567 439.776 274.023 443.36 271.079C446.944 268.135 451.424 266.663 456.8 266.663C461.024 266.663 465.696 268.583 470.816 272.423C471.456 272.871 472.096 273.287 472.736 273.671C473.376 273.991 473.952 274.151 474.464 274.151C475.552 274.151 476.192 273.383 476.384 271.847L476.768 268.391H479.072L480.032 293.351H477.728C476.704 288.743 475.072 284.647 472.832 281.063C470.656 277.479 468.096 274.695 465.152 272.711C462.208 270.727 459.168 269.735 456.032 269.735C452.448 269.735 449.504 270.919 447.2 273.287C444.896 275.591 443.744 278.823 443.744 282.983C443.744 285.863 444.48 288.103 445.952 289.703C447.424 291.303 449.6 292.679 452.48 293.831L471.008 301.223C475.296 302.951 478.496 305.415 480.608 308.615C482.784 311.815 483.872 315.175 483.872 318.695C483.872 322.087 483.104 325.287 481.568 328.295C480.096 331.303 477.792 333.767 474.656 335.687C471.584 337.543 467.712 338.471 463.04 338.471ZM507.883 333.671H517.099C518.827 333.671 519.691 332.807 519.691 331.079V273.767C519.691 272.871 519.499 272.231 519.115 271.847C518.731 271.399 518.059 271.175 517.099 271.175H513.643C509.611 271.175 506.123 273.223 503.179 277.319C501.323 279.943 500.075 283.239 499.435 287.207C498.795 291.111 498.475 293.991 498.475 295.847H495.787L496.555 268.391H551.659L552.427 295.847H549.739C549.739 293.991 549.419 291.111 548.779 287.207C548.139 283.239 546.891 279.943 545.035 277.319C542.091 273.223 538.603 271.175 534.571 271.175H531.115C530.155 271.175 529.483 271.399 529.099 271.847C528.715 272.231 528.523 272.871 528.523 273.767V331.079C528.523 332.807 529.387 333.671 531.115 333.671H540.331V336.743H507.883V333.671ZM554.135 333.671H557.687C561.463 333.671 564.215 331.335 565.943 326.663L586.583 268.391H588.983L609.815 329.447C610.455 331.047 611.223 332.167 612.119 332.807C613.015 333.383 614.167 333.671 615.575 333.671H620.951V336.743H591.191V333.671H597.527C598.487 333.671 599.287 333.447 599.927 332.999C600.567 332.487 600.887 331.911 600.887 331.271C600.887 330.439 600.759 329.735 600.503 329.159L595.991 316.391H573.527L571.223 322.823C570.327 325.383 569.879 327.239 569.879 328.391C569.879 329.799 570.231 331.047 570.935 332.135C571.639 333.159 572.855 333.671 574.583 333.671H580.439V336.743H554.135V333.671ZM574.583 313.319H594.935L584.951 284.039L574.583 313.319ZM642.711 278.855H642.327V325.991C642.327 328.359 642.871 330.247 643.959 331.655C645.111 332.999 646.583 333.671 648.375 333.671H651.831V336.743H628.983V333.671H632.439C634.295 333.671 635.767 332.999 636.855 331.655C637.943 330.247 638.487 328.359 638.487 325.991V274.055C638.423 273.159 638.199 272.519 637.815 272.135C637.431 271.687 636.791 271.463 635.895 271.463H628.983V268.391H647.127L680.439 321.959V279.143C680.439 276.775 679.895 274.919 678.807 273.575C677.719 272.167 676.279 271.463 674.487 271.463H671.031V268.391H693.879V271.463H690.423C688.631 271.463 687.159 272.167 686.007 273.575C684.855 274.919 684.279 276.775 684.279 279.143V338.471H680.439L642.711 278.855ZM702.858 333.671H709.77C711.498 333.671 712.362 332.807 712.362 331.079V274.055C712.362 273.159 712.138 272.519 711.69 272.135C711.306 271.687 710.666 271.463 709.77 271.463H702.858V268.391H737.994C743.306 268.391 748.17 269.831 752.586 272.711C757.002 275.527 760.49 279.495 763.05 284.615C765.674 289.671 766.986 295.463 766.986 301.991C766.986 308.519 765.674 314.439 763.05 319.751C760.49 325.063 756.97 329.223 752.49 332.231C748.074 335.239 743.242 336.743 737.994 336.743H702.858V333.671ZM737.61 333.671C742.09 333.671 745.77 332.167 748.65 329.159C751.53 326.087 753.61 322.183 754.89 317.447C756.17 312.647 756.81 307.495 756.81 301.991C756.81 293.415 755.242 286.183 752.106 280.295C749.034 274.407 744.202 271.463 737.61 271.463H723.786C722.89 271.463 722.218 271.687 721.77 272.135C721.386 272.519 721.194 273.159 721.194 274.055V331.079C721.194 332.807 722.058 333.671 723.786 333.671H737.61ZM770.041 333.671H773.593C777.369 333.671 780.121 331.335 781.849 326.663L802.489 268.391H804.889L825.721 329.447C826.361 331.047 827.129 332.167 828.025 332.807C828.921 333.383 830.073 333.671 831.481 333.671H836.857V336.743H807.097V333.671H813.433C814.393 333.671 815.193 333.447 815.833 332.999C816.473 332.487 816.793 331.911 816.793 331.271C816.793 330.439 816.665 329.735 816.409 329.159L811.897 316.391H789.433L787.129 322.823C786.233 325.383 785.785 327.239 785.785 328.391C785.785 329.799 786.137 331.047 786.841 332.135C787.545 333.159 788.761 333.671 790.489 333.671H796.345V336.743H770.041V333.671ZM790.489 313.319H810.841L800.857 284.039L790.489 313.319ZM894.618 337.895C892.506 337.895 890.714 337.543 889.242 336.839C887.834 336.135 886.714 334.983 885.882 333.383C884.154 330.055 883.226 324.391 883.098 316.391C883.034 312.103 882.266 308.551 880.794 305.735C879.322 302.855 876.954 301.415 873.69 301.415H863.226V331.079C863.226 331.975 863.418 332.647 863.802 333.095C864.186 333.479 864.858 333.671 865.818 333.671H874.362V336.743H844.89V333.671H851.802C853.53 333.671 854.394 332.807 854.394 331.079V274.055C854.394 273.159 854.17 272.519 853.722 272.135C853.338 271.687 852.698 271.463 851.802 271.463H844.89V268.391H876.378C882.586 268.391 887.674 269.575 891.642 271.943C895.61 274.311 897.594 278.247 897.594 283.751C897.594 288.487 895.802 292.295 892.218 295.175C888.698 298.055 884.442 299.751 879.45 300.263V300.647C883.098 301.351 886.074 303.047 888.378 305.735C890.746 308.359 892.314 312.871 893.082 319.271C893.53 322.919 893.914 325.575 894.234 327.239C894.618 328.903 895.066 330.087 895.578 330.791C896.154 331.431 896.986 331.751 898.074 331.751C900.826 331.751 902.202 328.295 902.202 321.383H904.602C904.602 325.543 903.994 329.351 902.778 332.807C901.562 336.199 898.842 337.895 894.618 337.895ZM872.538 298.343C877.914 298.343 881.722 297.063 883.962 294.503C886.266 291.879 887.417 288.295 887.417 283.751C887.417 279.847 886.362 276.839 884.25 274.727C882.202 272.551 879.386 271.463 875.802 271.463H865.818C864.922 271.463 864.25 271.687 863.802 272.135C863.418 272.519 863.226 273.159 863.226 274.055V298.343H872.538ZM913.608 333.671H920.52C922.248 333.671 923.112 332.807 923.112 331.079V274.055C923.112 273.159 922.888 272.519 922.44 272.135C922.056 271.687 921.416 271.463 920.52 271.463H913.608V268.391H948.744C954.056 268.391 958.92 269.831 963.336 272.711C967.752 275.527 971.24 279.495 973.8 284.615C976.424 289.671 977.736 295.463 977.736 301.991C977.736 308.519 976.424 314.439 973.8 319.751C971.24 325.063 967.72 329.223 963.24 332.231C958.824 335.239 953.992 336.743 948.744 336.743H913.608V333.671ZM948.36 333.671C952.84 333.671 956.52 332.167 959.4 329.159C962.28 326.087 964.36 322.183 965.64 317.447C966.92 312.647 967.56 307.495 967.56 301.991C967.56 293.415 965.992 286.183 962.856 280.295C959.784 274.407 954.952 271.463 948.36 271.463H934.536C933.64 271.463 932.968 271.687 932.52 272.135C932.136 272.519 931.944 273.159 931.944 274.055V331.079C931.944 332.807 932.808 333.671 934.536 333.671H948.36ZM1028.48 333.671H1037.69C1039.42 333.671 1040.28 332.807 1040.28 331.079V273.767C1040.28 272.871 1040.09 272.231 1039.71 271.847C1039.32 271.399 1038.65 271.175 1037.69 271.175H1034.24C1030.2 271.175 1026.72 273.223 1023.77 277.319C1021.92 279.943 1020.67 283.239 1020.03 287.207C1019.39 291.111 1019.07 293.991 1019.07 295.847H1016.38L1017.15 268.391H1072.25L1073.02 295.847H1070.33C1070.33 293.991 1070.01 291.111 1069.37 287.207C1068.73 283.239 1067.48 279.943 1065.63 277.319C1062.68 273.223 1059.2 271.175 1055.16 271.175H1051.71C1050.75 271.175 1050.08 271.399 1049.69 271.847C1049.31 272.231 1049.12 272.871 1049.12 273.767V331.079C1049.12 332.807 1049.98 333.671 1051.71 333.671H1060.92V336.743H1028.48V333.671ZM1097.01 333.671H1106.22C1107.95 333.671 1108.82 332.807 1108.82 331.079V273.767C1108.82 272.871 1108.62 272.231 1108.24 271.847C1107.86 271.399 1107.18 271.175 1106.22 271.175H1102.77C1098.74 271.175 1095.25 273.223 1092.3 277.319C1090.45 279.943 1089.2 283.239 1088.56 287.207C1087.92 291.111 1087.6 293.991 1087.6 295.847H1084.91L1085.68 268.391H1140.78L1141.55 295.847H1138.86C1138.86 293.991 1138.54 291.111 1137.9 287.207C1137.26 283.239 1136.02 279.943 1134.16 277.319C1131.22 273.223 1127.73 271.175 1123.7 271.175H1120.24C1119.28 271.175 1118.61 271.399 1118.22 271.847C1117.84 272.231 1117.65 272.871 1117.65 273.767V331.079C1117.65 332.807 1118.51 333.671 1120.24 333.671H1129.46V336.743H1097.01V333.671Z" fill="black"/>
</svg>
