<svg width="409" height="409" viewBox="0 0 409 409" fill="none" xmlns="http://www.w3.org/2000/svg">
<path d="M161.284 43.2157L196.746 86.2024L226.294 38.9547L242.607 92.24L287.987 59.8964L282.666 115.368L336.969 102.853L310.825 152.066L365.784 161.284L322.797 196.746L370.045 226.294L316.76 242.607L349.103 287.987L293.632 282.666L306.147 336.969L256.934 310.825L247.716 365.784L212.254 322.797L182.706 370.045L166.393 316.759L121.013 349.103L126.334 293.631L72.031 306.147L98.1746 256.934L43.2159 247.716L86.2026 212.253L38.9549 182.705L92.2403 166.393L59.8967 121.013L115.368 126.334L102.853 72.0307L152.066 98.1744L161.284 43.2157Z" fill="#FFF500"/>
<path d="M161.5 200C155.5 200 149.75 198.167 144.25 194.5C138.917 190.667 134.583 185.333 131.25 178.5C128.083 171.5 126.5 163.5 126.5 154.5C126.5 145.5 128.083 137.5 131.25 130.5C134.583 123.5 138.917 118.083 144.25 114.25C149.75 110.417 155.5 108.5 161.5 108.5C167.5 108.5 173.25 110.417 178.75 114.25C184.25 118.083 188.667 123.5 192 130.5C195.333 137.5 197 145.5 197 154.5C197 163.5 195.333 171.5 192 178.5C188.667 185.333 184.25 190.667 178.75 194.5C173.417 198.167 167.667 200 161.5 200ZM151 295.5L259 108.5H271.5L163.5 295.5H151ZM161.5 195C165.667 195 168.583 192 170.25 186C172.083 180 173 169.5 173 154.5C173 139.5 172.083 128.917 170.25 122.75C168.417 116.583 165.5 113.5 161.5 113.5C157.5 113.5 154.667 116.583 153 122.75C151.333 128.75 150.5 139.333 150.5 154.5C150.5 169.667 151.333 180.25 153 186.25C154.667 192.083 157.5 195 161.5 195ZM261 295C255 295 249.25 293.167 243.75 289.5C238.417 285.667 234.083 280.333 230.75 273.5C227.583 266.5 226 258.5 226 249.5C226 240.5 227.583 232.5 230.75 225.5C234.083 218.5 238.417 213.083 243.75 209.25C249.25 205.417 255 203.5 261 203.5C267 203.5 272.75 205.417 278.25 209.25C283.75 213.083 288.167 218.5 291.5 225.5C294.833 232.5 296.5 240.5 296.5 249.5C296.5 258.5 294.833 266.5 291.5 273.5C288.167 280.333 283.75 285.667 278.25 289.5C272.917 293.167 267.167 295 261 295ZM261 290C265.167 290 268.083 287 269.75 281C271.583 275 272.5 264.5 272.5 249.5C272.5 234.5 271.583 223.917 269.75 217.75C267.917 211.583 265 208.5 261 208.5C257 208.5 254.167 211.583 252.5 217.75C250.833 223.75 250 234.333 250 249.5C250 264.667 250.833 275.25 252.5 281.25C254.167 287.083 257 290 261 290Z" fill="#FF0000"/>
</svg>
