<svg width="850" height="365" viewBox="0 0 850 365" fill="none" xmlns="http://www.w3.org/2000/svg">
<path fill-rule="evenodd" clip-rule="evenodd" d="M760.709 38.8472H50.3338C50.1843 56.2933 34.1779 70.3951 14.4546 70.3951C14.3616 70.3951 14.2686 70.3948 14.1758 70.3942V182.786C14.2685 182.785 14.3614 182.785 14.4543 182.785C34.2705 182.785 50.3346 197.02 50.3346 214.579C50.3346 214.662 50.3343 214.744 50.3336 214.826H760.709C760.708 214.744 760.708 214.661 760.708 214.579C760.708 197.102 776.623 182.918 796.311 182.786V70.3939C776.715 70.2624 760.858 56.2113 760.709 38.8472Z" fill="#FFF500"/>
<rect x="15.2021" y="9.88525" width="833.825" height="21.2917" fill="#FF5CB4"/>
<ellipse cx="22.8029" cy="22.8125" rx="22.8029" ry="22.8125" fill="#FF5CB4"/>
<path d="M588.314 128.13C588.314 128.13 518.211 73.7604 431.734 73.7604C345.257 73.7604 275.154 128.13 275.154 128.13C275.154 128.13 345.257 182.5 431.734 182.5C518.211 182.5 588.314 128.13 588.314 128.13Z" fill="black"/>
<ellipse cx="430.974" cy="119.765" rx="45.6058" ry="46.0052" fill="white"/>
</svg>
