<svg width="1498" height="1271" viewBox="0 0 1498 1271" fill="none" xmlns="http://www.w3.org/2000/svg">
<rect width="1498" height="1271" fill="#0D0C0C"/>
<path d="M1200.69 508.849L1221.12 563.939L1237.07 507.391L1234.85 566.103L1271.23 519.963L1246.71 573.358L1297.97 544.651L1254.89 584.6L1313.24 577.695L1258.15 598.117L1314.7 614.066L1255.98 611.851L1302.12 648.225L1248.73 623.711L1277.44 674.974L1237.49 631.892L1244.39 690.239L1223.97 635.148L1208.02 691.696L1210.24 632.984L1173.86 679.124L1198.38 625.729L1147.11 654.437L1190.19 614.487L1131.85 621.392L1186.94 600.97L1130.39 585.022L1189.1 587.236L1142.96 550.862L1196.36 575.376L1167.65 524.113L1207.6 567.195L1200.69 508.849Z" fill="#AA3FFF"/>
<path d="M217.572 1068.16L229.86 1101.36L239.457 1067.29L238.124 1102.66L260.011 1074.86L245.26 1107.03L276.106 1089.73L250.183 1113.8L285.291 1109.64L252.142 1121.95L286.167 1131.56L250.84 1130.22L278.603 1152.14L246.474 1137.37L263.748 1168.25L239.71 1142.3L243.865 1177.45L231.577 1144.26L221.981 1178.33L223.313 1142.96L201.426 1170.76L216.177 1138.58L185.332 1155.88L211.254 1131.81L176.147 1135.97L209.295 1123.67L175.27 1114.06L210.597 1115.39L182.834 1093.48L214.963 1108.25L197.689 1077.36L221.727 1103.32L217.572 1068.16Z" fill="#AA3FFF"/>
</svg>
