<svg width="907" height="898" viewBox="0 0 907 898" fill="none" xmlns="http://www.w3.org/2000/svg">
<path d="M444.337 500L657.379 869H231.295L444.337 500Z" fill="#FF5CB4"/>
<circle cx="434" cy="481.636" r="346" fill="#FF0000"/>
<path d="M429.348 645.317C425.816 644.042 423.255 641.712 421.665 638.326C420.074 634.94 419.974 631.321 421.364 627.468C422.638 623.936 424.877 621.251 428.08 619.413C431.312 617.494 434.614 617.143 437.985 618.36C440.714 619.344 442.563 621.009 443.531 623.354C444.528 625.619 444.651 627.795 443.898 629.882C443.289 631.568 441.792 633.205 439.404 634.793C438.254 635.466 437.462 636.405 437.028 637.609C436.506 639.054 436.968 640.037 438.413 640.558C441.624 641.717 445.915 639.001 451.286 632.411C455.043 627.78 459.376 620.044 464.284 609.206C469.222 598.286 473.645 587.409 477.554 576.572C478.423 574.164 478.458 572.181 477.66 570.623C476.89 568.985 475.1 567.659 472.291 566.645L466.752 564.647L468.142 560.794L532.077 583.86L530.687 587.713L522.981 584.933C521.937 584.556 521.103 584.482 520.476 584.709C519.93 584.966 519.454 585.656 519.049 586.78L492.986 659.022C492.609 660.066 492.535 660.901 492.762 661.527C493.099 662.102 493.789 662.578 494.833 662.954L502.539 665.734L501.149 669.587L462.138 655.513L463.528 651.66L471.234 654.44C472.357 654.846 473.192 654.92 473.739 654.664C474.314 654.327 474.789 653.637 475.166 652.593L501.229 580.351C501.634 579.227 501.709 578.392 501.452 577.846C501.196 577.3 500.506 576.824 499.382 576.419L494.204 574.551C490.271 573.132 487.069 573.836 484.597 576.664C482.206 579.52 479.789 583.956 477.348 589.969C474.124 598.15 470.507 606.416 466.496 614.766C462.515 623.037 459.14 629.122 456.372 633.022C453.27 637.346 449.415 640.99 444.808 643.954C440.281 646.947 435.128 647.402 429.348 645.317Z" fill="white"/>
<path d="M487.371 407.084C483.839 405.81 481.278 403.48 479.687 400.093C478.096 396.707 477.996 393.088 479.386 389.235C480.66 385.703 482.899 383.018 486.102 381.18C489.334 379.262 492.636 378.911 496.007 380.127C498.737 381.112 500.585 382.777 501.554 385.122C502.551 387.386 502.673 389.562 501.92 391.649C501.312 393.335 499.814 394.972 497.427 396.56C496.277 397.234 495.484 398.173 495.05 399.377C494.529 400.821 494.991 401.804 496.435 402.326C499.646 403.484 503.937 400.768 509.308 394.179C513.066 389.547 517.398 381.812 522.307 370.973C527.244 360.054 531.667 349.176 535.577 338.34C536.446 335.932 536.481 333.948 535.682 332.39C534.912 330.752 533.123 329.426 530.313 328.412L524.775 326.414L526.165 322.561L590.099 345.627L588.709 349.48L581.003 346.7C579.96 346.323 579.125 346.249 578.499 346.477C577.952 346.733 577.477 347.423 577.071 348.547L551.008 420.789C550.632 421.833 550.557 422.668 550.785 423.294C551.122 423.869 551.812 424.345 552.855 424.722L560.561 427.502L559.171 431.355L520.16 417.281L521.55 413.428L529.256 416.208C530.38 416.613 531.215 416.688 531.761 416.431C532.336 416.094 532.812 415.404 533.188 414.361L559.251 342.118C559.657 340.994 559.731 340.159 559.475 339.613C559.218 339.067 558.528 338.591 557.404 338.186L552.227 336.318C548.294 334.899 545.091 335.603 542.62 338.431C540.228 341.288 537.812 345.723 535.37 351.737C532.147 359.917 528.529 368.183 524.519 376.534C520.537 384.804 517.163 390.889 514.395 394.789C511.293 399.113 507.438 402.757 502.831 405.721C498.303 408.715 493.15 409.169 487.371 407.084Z" fill="#AA3FFF"/>
<path d="M124.891 471.281C116.682 465.57 110.163 458.597 105.334 450.364C100.641 442.226 98.2205 433.74 98.0725 424.907C98.1565 416.031 100.959 407.626 106.48 399.691C110.097 394.492 114.669 391.278 120.195 390.047C125.954 388.774 131.022 389.661 135.4 392.707C140.051 395.943 142.656 399.786 143.215 404.236C144.006 408.644 142.973 412.9 140.118 417.004C137.738 420.425 134.877 422.494 131.533 423.214C128.422 423.892 125.308 423.553 122.191 422.196C119.854 421.179 117.763 420.536 115.919 420.268C114.075 420 112.581 420.687 111.439 422.329C108.774 426.16 108.057 430.838 109.288 436.364C110.614 441.754 113.189 447.099 117.014 452.4C120.933 457.563 125.082 461.668 129.46 464.714C141.636 473.186 153.203 476.259 164.16 473.934C175.255 471.705 184.8 464.844 192.795 453.352C199.363 443.912 202.886 434.18 203.363 424.157C204.071 414.092 199.706 405.775 190.266 399.207L169.334 384.643L174.474 377.256L194.996 391.534C203.751 397.626 212.296 399.206 220.631 396.274C229.06 393.205 236.178 387.498 241.985 379.153C247.886 370.671 250.51 361.938 249.857 352.956C249.34 344.069 244.635 336.532 235.743 330.344C224.661 322.634 212.339 320.355 198.776 323.506C185.308 326.521 172.149 334.928 159.299 348.728L154.168 345.158L191.149 292.008L196.28 295.577L192.576 303.965C191.844 305.892 191.514 307.388 191.585 308.453C191.793 309.613 192.444 310.574 193.539 311.335C195.181 312.477 198.705 313.102 204.112 313.21C218.258 313.306 230.325 316.829 240.312 323.777C251.256 331.393 258.932 339.474 263.34 348.023C267.747 356.571 269.572 364.745 268.816 372.543C268.155 380.205 265.826 386.909 261.828 392.655C257.735 398.538 252.265 402.752 245.418 405.297C238.803 407.801 232.191 408.987 225.582 408.856C219.068 408.588 213.911 407.537 210.11 405.705L208.682 407.757C213.048 411.404 216.524 416.767 219.111 423.846C221.794 430.788 222.894 438.254 222.411 446.243C222.024 454.095 219.736 461.03 215.548 467.05C208.599 477.037 199.94 483.5 189.572 486.437C179.298 489.238 168.457 489.208 157.048 486.345C145.871 483.442 135.152 478.42 124.891 471.281Z" fill="black"/>
<path d="M503.1 577.107C494.891 571.396 488.372 564.423 483.543 556.19C478.85 548.052 476.429 539.566 476.281 530.733C476.365 521.857 479.168 513.452 484.689 505.517C488.306 500.319 492.878 497.104 498.404 495.873C504.162 494.6 509.231 495.487 513.608 498.533C518.26 501.769 520.865 505.612 521.424 510.062C522.215 514.47 521.182 518.726 518.327 522.83C515.947 526.251 513.086 528.321 509.742 529.04C506.631 529.718 503.517 529.379 500.4 528.022C498.062 527.005 495.972 526.362 494.128 526.094C492.284 525.826 490.79 526.513 489.648 528.155C486.983 531.986 486.266 536.664 487.497 542.191C488.823 547.58 491.398 552.925 495.222 558.226C499.142 563.389 503.291 567.494 507.669 570.54C519.845 579.012 531.412 582.085 542.369 579.76C553.463 577.531 563.009 570.67 571.004 559.178C577.572 549.738 581.095 540.006 581.571 529.983C582.28 519.918 577.915 511.601 568.475 505.033L547.543 490.47L552.683 483.082L573.205 497.36C581.96 503.452 590.505 505.032 598.84 502.1C607.269 499.032 614.387 493.324 620.193 484.979C626.095 476.497 628.719 467.765 628.066 458.782C627.549 449.895 622.844 442.358 613.951 436.17C602.87 428.46 590.548 426.181 576.985 429.332C563.517 432.347 550.358 440.754 537.508 454.554L532.377 450.985L569.358 397.834L574.488 401.404L570.785 409.791C570.053 411.718 569.723 413.214 569.794 414.279C570.002 415.439 570.653 416.4 571.748 417.161C573.39 418.303 576.914 418.928 582.321 419.036C596.467 419.132 608.533 422.655 618.521 429.604C629.465 437.219 637.141 445.3 641.548 453.849C645.956 462.397 647.781 470.571 647.025 478.369C646.364 486.031 644.035 492.735 640.037 498.481C635.944 504.364 630.474 508.578 623.627 511.123C617.012 513.627 610.4 514.813 603.791 514.682C597.277 514.414 592.12 513.363 588.319 511.531L586.891 513.583C591.257 517.23 594.733 522.593 597.32 529.672C600.003 536.614 601.103 544.08 600.62 552.069C600.233 559.921 597.945 566.857 593.757 572.876C586.808 582.863 578.149 589.326 567.78 592.264C557.507 595.064 546.666 595.034 535.257 592.172C524.079 589.268 513.36 584.246 503.1 577.107Z" fill="white"/>
<path d="M704.368 287.13C702.813 285.547 700.176 283.472 696.457 280.905C692.859 278.339 689.131 276.918 685.271 276.643C683.401 276.566 681.346 276.97 679.106 277.856C676.986 278.742 675.104 279.993 673.461 281.608L624.248 329.96L621.377 327.038L627.951 320.579C629.594 318.965 629.609 317.336 627.994 315.692L574.707 261.457C573.87 260.605 573.059 260.206 572.274 260.259C571.49 260.192 570.672 260.577 569.82 261.414L563.246 267.873L560.376 264.952L586.854 238.936L589.725 241.858L583.151 248.317C582.298 249.154 581.869 249.995 581.861 250.84C581.855 251.564 582.27 252.352 583.107 253.204L636.394 307.439C638.009 309.082 639.638 309.097 641.281 307.482L663.925 285.235C665.568 283.62 665.583 281.991 663.968 280.347L610.681 226.112C609.844 225.26 609.033 224.861 608.248 224.914C607.464 224.847 606.646 225.232 605.794 226.069L599.22 232.528L596.349 229.607L622.828 203.591L625.698 206.513L619.124 212.972C618.272 213.809 617.843 214.65 617.835 215.495C617.829 216.219 618.244 217.007 619.081 217.859L671.202 270.907C674.431 274.194 677.72 274.193 681.068 270.904L687.094 264.983L706.65 284.887L704.368 287.13Z" fill="#FFF500"/>
<path d="M514.503 323.662L523.224 309.585C525.404 306.066 524.734 303.216 521.215 301.035L405.076 229.086C403.251 227.956 401.665 227.604 400.318 228.032C398.921 228.249 397.657 229.27 396.526 231.095L387.805 245.172L381.549 241.296L421.036 177.556C425.8 169.866 431.675 163.585 438.661 158.714C445.728 153.712 453.055 150.766 460.642 149.875C468.098 148.902 475.02 150.395 481.407 154.351C490.27 159.842 495.713 167.363 497.733 176.912C499.754 186.461 499.149 195.736 495.917 204.737L496.699 205.221C500.401 200.119 505.366 195.89 511.594 192.533C517.773 188.965 524.453 187.062 531.637 186.822C538.9 186.452 545.726 188.245 552.113 192.202C560.064 197.128 565.615 203.453 568.766 211.177C571.918 218.901 572.812 227.211 571.449 236.107C570.037 244.792 566.747 253.306 561.579 261.648L520.759 327.538L514.503 323.662ZM483.9 217.584C490.441 207.026 492.21 198.201 489.208 191.11C486.156 183.808 480.002 177.291 470.748 171.557C462.927 166.712 454.94 165.192 446.788 166.995C438.636 168.799 432.299 173.351 427.777 180.65L414.211 202.549C413.08 204.374 412.689 206.025 413.036 207.503C413.333 208.769 414.395 209.968 416.219 211.098L468.032 243.197L483.9 217.584ZM553.99 259.923C558.916 251.972 560.607 244.001 559.064 236.01C557.471 227.808 550.874 220.114 539.273 212.927C527.672 205.74 517.911 203.3 509.988 205.607C502.016 207.703 495.567 212.726 490.641 220.678L474.289 247.073L532.359 283.048C535.878 285.228 538.728 284.558 540.908 281.039L553.99 259.923Z" fill="black"/>
<path d="M247.907 450.283L262.31 446.878C277.621 443.258 286.541 431.147 289.068 410.546L316.892 154.472L326.624 152.171L469.632 379.772C473.761 385.647 477.949 389.452 482.196 391.188C486.381 392.664 491.329 392.728 497.038 391.378L518.837 386.224L521.782 398.68L401.109 427.212L398.164 414.756L423.856 408.681C427.748 407.761 430.778 406.086 432.943 403.655C435.047 400.966 435.793 398.323 435.179 395.728C434.382 392.355 433.188 389.623 431.597 387.533L401.06 340.086L309.972 361.623L306.796 389.913C305.617 401.152 305.58 409.108 306.685 413.779C308.035 419.488 310.659 424.211 314.556 427.948C318.393 431.425 323.814 432.335 330.821 430.679L354.566 425.064L357.512 437.521L250.852 462.74L247.907 450.283ZM311.309 348.154L393.833 328.642L325.277 219.488L311.309 348.154Z" fill="#FFF500"/>
<path d="M172.448 622.276H194.528C198.668 622.276 200.738 620.206 200.738 616.066V598.356H181.878C171.605 598.356 162.175 596.286 153.588 592.146C145.155 587.853 138.408 581.796 133.348 573.976C128.288 566.156 125.758 557.11 125.758 546.836C125.758 536.563 128.288 527.516 133.348 519.696C138.408 511.876 145.155 505.896 153.588 501.756C162.175 497.463 171.605 495.316 181.878 495.316H200.738V479.446C200.738 477.3 200.201 475.766 199.128 474.846C198.208 473.773 196.675 473.236 194.528 473.236H172.448V465.876H250.188V473.236H228.108C225.961 473.236 224.351 473.773 223.278 474.846C222.358 475.766 221.898 477.3 221.898 479.446V495.316H240.758C251.031 495.316 260.385 497.463 268.818 501.756C277.405 505.896 284.228 511.876 289.288 519.696C294.348 527.516 296.878 536.563 296.878 546.836C296.878 557.11 294.348 566.156 289.288 573.976C284.228 581.796 277.405 587.853 268.818 592.146C260.385 596.286 251.031 598.356 240.758 598.356H221.898V616.066C221.898 620.206 223.968 622.276 228.108 622.276H250.188V629.636H172.448V622.276ZM200.738 590.996V502.676H179.578C169.765 502.676 162.405 507.123 157.498 516.016C152.591 524.756 150.138 535.03 150.138 546.836C150.138 558.796 152.591 569.146 157.498 577.886C162.405 586.626 169.765 590.996 179.578 590.996H200.738ZM243.058 590.996C252.871 590.996 260.231 586.626 265.138 577.886C270.045 569.146 272.498 558.796 272.498 546.836C272.498 535.03 270.045 524.756 265.138 516.016C260.231 507.123 252.871 502.676 243.058 502.676H221.898V590.996H243.058Z" fill="#AA3FFF"/>
<path d="M426.948 802.276H449.028C453.168 802.276 455.238 800.206 455.238 796.066V778.356H436.378C426.105 778.356 416.675 776.286 408.088 772.146C399.655 767.853 392.908 761.796 387.848 753.976C382.788 746.156 380.258 737.11 380.258 726.836C380.258 716.563 382.788 707.516 387.848 699.696C392.908 691.876 399.655 685.896 408.088 681.756C416.675 677.463 426.105 675.316 436.378 675.316H455.238V659.446C455.238 657.3 454.701 655.766 453.628 654.846C452.708 653.773 451.175 653.236 449.028 653.236H426.948V645.876H504.688V653.236H482.608C480.461 653.236 478.851 653.773 477.778 654.846C476.858 655.766 476.398 657.3 476.398 659.446V675.316H495.258C505.531 675.316 514.885 677.463 523.318 681.756C531.905 685.896 538.728 691.876 543.788 699.696C548.848 707.516 551.378 716.563 551.378 726.836C551.378 737.11 548.848 746.156 543.788 753.976C538.728 761.796 531.905 767.853 523.318 772.146C514.885 776.286 505.531 778.356 495.258 778.356H476.398V796.066C476.398 800.206 478.468 802.276 482.608 802.276H504.688V809.636H426.948V802.276ZM455.238 770.996V682.676H434.078C424.265 682.676 416.905 687.123 411.998 696.016C407.091 704.756 404.638 715.03 404.638 726.836C404.638 738.796 407.091 749.146 411.998 757.886C416.905 766.626 424.265 770.996 434.078 770.996H455.238ZM497.558 770.996C507.371 770.996 514.731 766.626 519.638 757.886C524.545 749.146 526.998 738.796 526.998 726.836C526.998 715.03 524.545 704.756 519.638 696.016C514.731 687.123 507.371 682.676 497.558 682.676H476.398V770.996H497.558Z" fill="#FF5CB4"/>
<path d="M305.647 556.916L321.43 561.927C325.376 563.18 327.976 561.833 329.228 557.888L370.568 427.672C371.218 425.626 371.17 424.002 370.426 422.801C369.873 421.499 368.574 420.524 366.528 419.874L350.745 414.863L352.972 407.848L424.437 430.537C433.059 433.274 440.587 437.433 447.02 443.015C453.598 448.643 458.248 455.026 460.969 462.164C463.737 469.155 463.984 476.232 461.71 483.393C458.555 493.331 452.596 500.448 443.832 504.744C435.067 509.04 425.926 510.723 416.408 509.793L416.13 510.67C421.983 513.01 427.298 516.789 432.077 522.006C437.048 527.124 440.529 533.136 442.519 540.042C444.656 546.994 444.587 554.051 442.314 561.212C439.483 570.127 434.709 577.057 427.991 582.003C421.273 586.948 413.435 589.849 404.476 590.705C395.709 591.461 386.649 590.355 377.296 587.385L303.42 563.931L305.647 556.916ZM401.011 501.285C412.849 505.043 421.838 504.599 427.978 499.952C434.311 495.206 439.125 487.645 442.419 477.269C445.203 468.5 444.723 460.384 440.979 452.921C437.235 445.459 431.271 440.428 423.087 437.83L398.534 430.035C396.488 429.386 394.791 429.41 393.443 430.108C392.288 430.707 391.386 432.029 390.736 434.075L372.293 492.168L401.011 501.285ZM377.112 579.605C386.027 582.435 394.169 582.124 401.539 578.672C409.101 575.121 414.947 566.842 419.077 553.835C423.206 540.828 423.183 530.766 419.007 523.649C415.024 516.432 408.576 511.408 399.661 508.578L370.066 499.183L349.396 564.29C348.144 568.236 349.49 570.836 353.436 572.088L377.112 579.605Z" fill="#FFF500"/>
<path d="M286.114 753.065L291.844 756.93C293.277 757.896 294.476 757.663 295.442 756.231L327.329 708.955C327.83 708.212 328.002 707.557 327.846 706.988C327.778 706.402 327.373 705.858 326.63 705.357L320.899 701.492L322.617 698.945L364.321 727.074L350.46 749.685L348.471 748.343C348.704 747.883 349.171 746.847 349.872 745.235C350.626 743.659 351.355 741.72 352.06 739.416C352.765 737.112 353.212 734.905 353.4 732.793C353.575 730.132 353.127 727.591 352.057 725.171C351.023 722.698 349.206 720.585 346.606 718.831L338.25 713.195C337.507 712.694 336.824 712.503 336.203 712.624C335.669 712.728 335.152 713.151 334.651 713.894L302.764 761.169C301.798 762.602 302.031 763.801 303.464 764.768L310.547 769.545L308.829 772.092L284.396 755.612L286.114 753.065Z" fill="white"/>
<path d="M357.787 681.515C356.07 683.052 354.132 683.67 351.973 683.369C349.862 683.026 347.867 681.806 345.989 679.708C343.427 676.847 341.493 673.296 340.186 669.054C338.884 664.721 337.921 660 337.297 654.889L335.654 641.541C335.38 639.124 334.829 636.782 334.002 634.516C333.181 632.159 332.215 630.36 331.105 629.121C330.465 628.405 329.847 628.099 329.252 628.203C328.662 628.215 327.986 628.563 327.223 629.246L312.418 642.502C310.511 644.21 309.536 645.856 309.494 647.44C309.457 648.933 309.978 650.571 311.058 652.353L314.05 657.277L312.477 658.686L300.158 642.913L327.622 618.323C329.842 620.802 332 623.981 334.098 627.858C336.243 631.693 337.608 635.712 338.192 639.914L339.622 649.715C340.229 654.326 342.026 658.3 345.015 661.638C346.85 663.688 348.594 665.348 350.247 666.618L352.917 668.737C355.006 670.302 356.691 671.8 357.972 673.231C360.661 676.235 360.6 678.996 357.787 681.515Z" fill="black"/>
<path d="M698.547 587.795C695.162 590.826 691.395 592.136 687.248 591.726C685.764 591.508 684.386 591.024 683.113 590.274C681.888 589.481 680.912 588.68 680.187 587.869C678.692 586.2 678.072 584.308 678.324 582.191C678.542 580.708 679.2 579.475 680.296 578.493C681.393 577.511 682.635 577.172 684.024 577.475C684.561 577.595 684.981 577.777 685.285 578.021C685.637 578.221 686.026 578.56 686.453 579.037C687.093 579.752 687.424 580.745 687.444 582.015C687.442 582.876 687.352 583.687 687.174 584.447C687.001 585.118 686.969 585.705 687.077 586.21C687.19 586.624 687.439 587.046 687.823 587.475C688.591 588.333 689.751 588.669 691.302 588.483C692.859 588.206 694.638 587.171 696.641 585.378C698.357 583.841 699.53 581.889 700.159 579.521C700.836 577.111 700.653 574.268 699.61 570.993C698.841 568.503 697.476 565.731 695.514 562.677C693.51 559.575 691.718 557.141 690.138 555.377L687.257 552.159L686.564 552.393C687.328 554.973 687.338 557.67 686.593 560.484C685.854 563.208 684.649 565.317 682.981 566.812C679.786 569.672 676.388 571.297 672.786 571.688C669.731 572.018 666.699 571.51 663.691 570.166C660.641 568.774 657.963 566.79 655.658 564.216C653.352 561.641 651.619 558.554 650.458 554.955C649.254 551.308 648.981 547.644 649.637 543.964C650.341 540.241 652.195 537.034 655.199 534.345C658.298 531.57 661.87 530.09 665.914 529.905C670.005 529.678 674.296 530.776 678.785 533.199C683.232 535.575 687.611 539.171 691.923 543.986C695.424 547.896 698.36 552.183 700.731 556.846C703.102 561.509 704.444 565.934 704.757 570.121C705.29 577.72 703.219 583.611 698.547 587.795ZM680.468 564.294C682.137 562.799 683.148 560.906 683.501 558.614C683.854 556.322 683.516 553.833 682.485 551.148C681.46 548.372 679.774 545.672 677.426 543.05C673.882 539.093 670.359 536.405 666.857 534.988C663.312 533.524 660.109 534.072 657.248 536.633C654.34 539.238 653.456 542.52 654.597 546.481C655.786 550.399 657.96 554.122 661.119 557.651C664.534 561.465 667.946 564.124 671.353 565.626C674.759 567.128 677.798 566.684 680.468 564.294Z" fill="#AA3FFF"/>
<path d="M223.024 729.267L253.124 647.87L270.271 652.982L269.766 655.457L260.589 653.701C259.906 653.517 259.285 653.628 258.725 654.035C258.225 654.465 257.831 655.069 257.543 655.85L231.572 726.082C231.283 726.862 231.189 727.578 231.289 728.229C231.45 728.902 231.849 729.391 232.487 729.695L240.598 734.333L239.372 736.54L223.024 729.267Z" fill="#FFF500"/>
<path d="M623.693 465.248C613.015 458.045 605.753 448.246 601.907 435.85C598.061 423.454 597.474 410.203 600.144 396.098C602.9 381.866 608.351 368.712 616.497 356.636C624.642 344.559 634.753 334.641 646.831 326.881C658.994 318.994 671.542 314.512 684.476 313.433C697.411 312.355 709.217 315.417 719.895 322.619C730.573 329.822 737.835 339.621 741.68 352.017C745.526 364.414 746.071 377.728 743.315 391.959C740.644 406.064 735.236 419.155 727.091 431.231C718.945 443.308 708.791 453.289 696.628 461.176C684.551 468.936 672.045 473.355 659.111 474.434C646.177 475.512 634.371 472.45 623.693 465.248ZM627.808 459.146C640.266 467.549 653.043 467.937 666.141 460.31C679.323 452.556 692.903 438.319 706.879 417.598C720.94 396.751 729.054 378.826 731.219 363.826C733.383 348.825 728.237 337.124 715.779 328.721C703.322 320.318 690.544 319.93 677.447 327.557C664.35 335.184 650.77 349.421 636.709 370.269C622.733 390.989 614.619 408.913 612.369 424.041C610.204 439.042 615.35 450.743 627.808 459.146Z" fill="#FFF500"/>
<path d="M567.767 730.52L576.662 721.853C579.737 718.857 581.348 715.896 581.494 712.97C581.751 709.937 581.041 706.133 579.366 701.557C573.815 686.413 564.813 669.922 552.358 652.086C539.906 634.033 524.531 615.617 506.233 596.837C499.919 590.358 493.907 589.9 488.197 595.465L478.972 604.453L473.835 599.182L563.121 512.186L568.257 517.457L556.396 529.014C554.859 530.512 554.08 532.02 554.06 533.538C554.043 534.839 554.784 536.258 556.282 537.796L649.538 633.505C655.316 639.436 661.17 639.512 667.101 633.733L678.138 622.979L713.129 658.891L709.01 662.904C706.228 660.048 701.506 656.3 694.843 651.66C688.398 647.022 681.653 644.495 674.611 644.078C671.251 643.926 667.61 644.583 663.688 646.05C659.982 647.52 656.592 649.753 653.516 652.75L598.002 706.841C595.036 709.73 592.716 713.061 591.04 716.835C589.582 720.611 588.885 724.18 588.95 727.542C589.183 734.594 591.48 741.455 595.839 748.126C600.415 754.799 604.094 759.564 606.876 762.419L602.758 766.432L567.767 730.52ZM636.355 659.195C639.32 656.306 639.358 653.379 636.469 650.414L541.127 552.562C538.237 549.597 535.31 549.559 532.345 552.448L517.025 567.376C511.534 572.726 509.727 578.232 511.606 583.895C513.487 589.341 516.407 594.096 520.366 598.16C532.993 611.118 545.215 625.97 557.034 642.713C568.745 659.347 577.134 673.01 582.2 683.702C582.94 685.122 584.051 687.25 585.533 690.089C587.017 692.711 588.133 694.406 588.882 695.174C590.701 697.041 592.368 698.093 593.883 698.33C595.291 698.456 597.203 697.343 599.619 694.989L636.355 659.195Z" fill="#FFF500"/>
</svg>
